<svg version="1" xmlns="http://www.w3.org/2000/svg" width="682.667" height="682.667" viewBox="0 0 512.000000 512.000000"><path d="M229.5 52.1c-29.7 4-61 15.7-85.5 31.7-14.7 9.6-24 17.3-36.6 30.5-27.2 28.3-44.3 61.4-53.1 102.4-2.6 12.1-2.7 14.2-2.7 39.3 0 25.1.1 27.2 2.7 39.3 8.8 41 25.9 74.1 53.1 102.4 12.6 13.2 21.9 20.9 36.6 30.5 20.9 13.7 45.8 23.8 72.5 29.5 12.3 2.6 14.4 2.7 39.5 2.7s27.2-.1 39.5-2.7c59.9-12.8 107.7-46.8 138.2-98.4 10.7-18.2 18.9-40 24-64 2.6-12.1 2.7-14.2 2.7-39.3 0-25.1-.1-27.2-2.7-39.3-8.8-41-25.9-74.1-53.1-102.4-23.9-25-50.9-42.2-82.8-52.8-23.6-7.8-34.7-9.6-61.8-10-12.9-.2-26.6.1-30.5.6zm83.2 90.1c-.3 1.3-1.5 7.5-2.6 13.8-5.4 30.2-30.3 156.3-32.2 162.5-3.2 10.6-6.6 18.3-11.5 25.7-10.6 16-26.2 25.2-49.3 29.2-9.6 1.6-35.1 2.3-35.1.8 0-.4 1.4-8.4 3.1-17.8l3.2-17.2 8.6-.7c11.3-.9 18-3.5 23.9-9.3 7-6.8 13.3-21.9 11.6-27.5-.4-1.2-.3-1.8.2-1.4.4.4 7.9-35.4 16.5-79.5 8.6-44.2 15.8-80.4 15.8-80.6.1-.1 10.9-.2 24.2-.2h24.1l-.5 2.2zM188 272.3c0 .2-1.5 1.6-3.2 3.3l-3.3 2.9 2.9-3.3c2.8-3 3.6-3.7 3.6-2.9zm37.6 2.9l2.9 3.3-3.2-2.9c-3.1-2.8-3.8-3.6-3-3.6.2 0 1.6 1.5 3.3 3.2zm-40 40l2.9 3.3-3.2-2.9c-1.8-1.7-3.3-3.1-3.3-3.3 0-.8.8-.1 3.6 2.9zm42.4-2.9c0 .2-1.5 1.6-3.2 3.3l-3.3 2.9 2.9-3.3c2.8-3 3.6-3.7 3.6-2.9z"/></svg>